<svg xmlns="http://www.w3.org/2000/svg" width="108" height="17" viewBox="0 0 108 17">
  <path fill="#1F252C" fill-rule="evenodd" d="M0,17.0114638 L0,19.6948854 L1.48000555,19.6948854 L1.48000555,27.8051146 L4.45496621,27.8051146 L4.45496621,19.6948854 L7.01133944,19.6948854 L7.01133944,17.0114638 L4.45496621,17.0114638 L4.45496621,15.4823633 C4.45496621,13.7134039 5.90507267,13.5784832 6.75719707,13.5784832 L8.74548736,13.5784832 C9.07437749,13.5784832 9.26872165,13.7433862 9.26872165,14.1031746 L9.26872165,26.186067 C9.26872165,27.3253968 9.73215773,27.8051146 10.8683236,27.8051146 L13.6788392,27.8051146 L13.6788392,25.2566138 L12.7669166,25.2566138 C12.4380265,25.2566138 12.2436823,25.0617284 12.2436823,24.7319224 L12.2436823,12.6190476 C12.2436823,11.494709 11.7503471,11 10.6440803,11 L6.3535592,11 C4.67920948,11 1.465056,11.4347443 1.465056,15.4223986 L1.465056,16.9814815 L0,17.0114638 Z M25.5936314,25.3165785 C25.2647413,25.3165785 24.9657503,25.031746 24.9657503,24.70194 L24.9657503,20.1746032 C24.9657503,17.5511464 23.7847357,15.4973545 19.8081551,15.4973545 C18.5673424,15.4973545 15.4129871,15.7222222 15.4129871,17.9109347 L15.4129871,19.1552028 L18.1786541,19.1552028 L18.1786541,18.5255732 C18.1786541,17.8809524 19.2400722,17.7460317 19.778256,17.7460317 C21.3031102,17.7460317 21.9907896,18.3756614 21.9907896,20.0546737 L21.9907896,20.1446208 L21.6170508,20.1446208 C19.6736092,20.1446208 14.5010645,20.4444444 14.5010645,24.1322751 C14.5010645,26.4858907 16.4445062,27.7901235 18.582292,27.7901235 C21.2881607,27.7901235 22.2000833,25.7213404 22.2000833,25.7213404 L22.244932,25.7213404 C22.244932,25.7213404 22.2150329,26.186067 22.2150329,26.4858907 C22.2150329,27.175485 22.6336203,27.7751323 23.7398871,27.7751323 L26.4158567,27.7751323 L26.4158567,25.3165785 L25.5936314,25.3165785 Z M22.0505878,22.3183422 L22.0356382,22.3183422 C22.0356382,23.787478 20.9144219,25.4814815 19.31482,25.4814815 C18.0889568,25.4814815 17.5059243,24.7319224 17.5059243,23.9223986 C17.5059243,22.2433862 19.9726002,22.0335097 21.5273535,22.0335097 L22.0505878,22.0335097 L22.0505878,22.3183422 Z M33.0833565,27.8201058 C33.6215403,27.8201058 33.9952791,27.7451499 33.9952791,27.7451499 L33.9952791,25.0917108 C33.9952791,25.0917108 33.7859854,25.1366843 33.4570953,25.1366843 C32.6348699,25.1366843 31.0801166,24.8518519 31.0801166,22.8430335 L31.0801166,17.9259259 L34.0102286,17.9259259 L34.0102286,15.5123457 L31.0801166,15.5123457 L31.0801166,11 L28.1649542,11 L28.1649542,15.5123457 L26.4607054,15.5123457 L26.4607054,17.9259259 L28.0902064,17.9259259 L28.0902064,23.2328042 C28.105156,27.3104056 31.4090068,27.8201058 33.0833565,27.8201058 Z M40.259141,27.835097 C42.8603629,27.835097 44.8636027,26.4559083 44.8636027,24.2372134 C44.8636027,20.3095238 38.2523132,20.6843034 38.2523132,18.840388 C38.2523132,18.1507937 38.9848412,17.7760141 40.0313098,17.7760141 C40.6890901,17.7760141 41.5412145,18.0458554 41.5412145,18.6005291 L41.5412145,19.170194 L44.1723355,19.170194 L44.1723355,17.9409171 C44.1723355,16.0220459 41.5860631,15.4973545 39.9715116,15.4973545 C37.4898861,15.4973545 35.3222012,16.5767196 35.3222012,18.9303351 C35.3222012,22.7380952 41.8736925,22.7081129 41.8736925,24.372134 C41.8736925,25.1516755 41.1710636,25.526455 40.259141,25.526455 C38.2110525,25.526455 36.6861983,23.8024691 36.6861983,23.8024691 L35.2809405,25.7363316 C35.2809405,25.7363316 36.9702397,27.835097 40.259141,27.835097 Z M51.4862538,27.8201058 C52.0244377,27.8201058 52.3981764,27.7451499 52.3981764,27.7451499 L52.3981764,25.0917108 C52.3981764,25.0917108 52.1888827,25.1366843 51.8599926,25.1366843 C51.0377673,25.1366843 49.483014,24.8518519 49.483014,22.8430335 L49.483014,17.9259259 L52.3832269,17.9259259 L52.3832269,15.5123457 L49.483014,15.5123457 L49.483014,11 L46.5678515,11 L46.5678515,15.5123457 L44.8486532,15.5123457 L44.8486532,17.9259259 L46.4931038,17.9259259 L46.4931038,23.2328042 C46.5080533,27.3104056 49.8119041,27.8201058 51.4862538,27.8201058 Z M58.8115338,27.835097 C60.8745719,27.835097 62.3844765,27.1155203 62.9376099,25.8712522 L62.9824586,25.8712522 L62.9525595,26.4559083 C62.9525595,27.3104056 63.4907433,27.8051146 64.5222623,27.8051146 L67.2729797,27.8051146 L67.2729797,25.2716049 L66.4358049,25.2716049 C66.1069147,25.2716049 65.8228733,24.9717813 65.8228733,24.6419753 L65.8228733,15.4973545 L62.8479126,15.4973545 L62.8479126,21.0291005 C62.8479126,23.1728395 61.6519485,25.0917108 59.4842636,25.0917108 C58.0042581,25.0917108 57.6305193,24.1022928 57.6305193,22.633157 L57.6305193,17.0864198 C57.6305193,16.0070547 57.1670832,15.4973545 56.0608164,15.4973545 L53.2204017,15.4973545 L53.2204017,17.9259259 L54.0575766,17.9259259 C54.3864667,17.9259259 54.6854577,18.1957672 54.6854577,18.5555556 L54.6854577,23.2477954 C54.6854577,26.5308642 56.2551606,27.835097 58.8115338,27.835097 Z M80.4435342,25.3915344 C80.1146441,25.3765432 79.9202999,25.196649 79.9202999,24.866843 L79.9202999,12.5740741 C79.9202999,11.4797178 79.4269647,11 78.320698,11 L75.4802833,11 L75.4802833,13.5035273 L76.3025086,13.5035273 C76.6313987,13.5035273 76.9303897,13.7733686 76.9303897,14.133157 L76.9303897,16.2619048 C76.9303897,16.6516755 76.9602888,16.9514991 76.9602888,16.9514991 L76.9154402,16.9514991 C76.9154402,16.9514991 76.0633157,15.5123457 73.4620939,15.5123457 C70.292789,15.5123457 68.0204573,17.9409171 68.0204573,21.7037037 C68.0204573,25.361552 70.1133944,27.8950617 73.3424975,27.8950617 C76.0932148,27.8950617 77.0798852,25.9761905 77.0798852,25.9761905 L77.1247339,25.9761905 L77.1247339,26.6657848 C77.1247339,27.3553792 77.5283717,27.8650794 78.6047394,27.8650794 L81.3554568,27.8650794 L81.3554568,25.3915344 L80.4435342,25.3915344 Z M74.0002777,25.361552 C72.2362307,25.361552 71.0402666,23.8624339 71.0402666,21.5687831 C71.0402666,19.170194 72.4006757,17.8209877 74.0451264,17.8209877 C76.0334166,17.8209877 77.0051375,19.664903 77.0051375,21.5388007 C77.0051375,24.2222222 75.555031,25.361552 74.0002777,25.361552 L74.0002777,25.361552 Z M85.0998709,13.8333333 C85.8827789,13.8333333 86.5126034,13.2017549 86.5126034,12.4166667 C86.5126034,11.6315785 85.8827789,11 85.0998709,11 L84.9807229,11 C84.197815,11 83.5679904,11.6315785 83.5679904,12.4166667 L83.5679904,13.8333333 L85.0998709,13.8333333 Z M85.1077941,27.7601411 L87.9482088,27.7601411 L87.9482088,25.2116402 L87.0960844,25.2116402 C86.7671943,25.2116402 86.4831528,24.9268078 86.4831528,24.5820106 L86.4831528,17.1164021 C86.4831528,15.9920635 86.0197167,15.4973545 84.91345,15.4973545 L82.0730353,15.4973545 L82.0730353,18.0758377 L82.880311,18.0758377 C83.2092011,18.0758377 83.5231417,18.3606702 83.5231417,18.7204586 L83.5231417,26.1410935 C83.5380913,27.2804233 84.0015274,27.7601411 85.1077941,27.7601411 Z M95.1987411,25.4814815 C93.270249,25.4814815 91.6556975,23.9973545 91.6556975,21.808642 C91.6556975,19.6349206 93.270249,18.1358025 95.1987411,18.1358025 C97.1421827,18.1358025 98.7716838,19.6349206 98.7716838,21.808642 C98.7716838,23.9973545 97.1421827,25.4814815 95.1987411,25.4814815 Z M95.1987411,15.6472663 C91.5660002,15.6472663 88.6508377,18.2107584 88.6508377,21.8236332 C88.6508377,25.4514991 91.5660002,28 95.1987411,28 C98.8613811,28 101.776544,25.4514991 101.776544,21.8236332 C101.776544,18.2107584 98.8613811,15.6472663 95.1987411,15.6472663 Z M104.661807,11 L102.703416,11 L102.703416,11.3747795 L103.480792,11.3747795 L103.480792,13.4585538 L103.88443,13.4585538 L103.88443,11.3747795 L104.661807,11.3747795 L104.661807,11 Z M107.666667,11 L107.188281,11 L106.381005,12.6340388 L105.57373,11 L105.095344,11 L105.095344,13.4585538 L105.484032,13.4585538 L105.484032,11.6296296 L106.246459,13.2037037 L106.515551,13.2037037 L107.292928,11.6296296 L107.292928,13.4585538 L107.666667,13.4585538 L107.666667,11 Z" transform="translate(0 -11)"/>
</svg>
